<svg id="Capa_1" enable-background="new 0 0 512 512" height="512" viewBox="0 0 512 512" width="512" xmlns="http://www.w3.org/2000/svg"><g><g><g><path d="m45 271h-45v30h87.42c-6.18-17.46-22.87-30-42.42-30zm-45 60v45c0 8.28 6.72 15 15 15h482c8.28 0 15-6.72 15-15v-45zm464.85-104.01c-22.011-8.806-25.288-10.11-26.86-10.76l-50.38 50.38c-5.824 5.825-15.339 5.882-21.22 0-5.85-5.86-5.85-15.36 0-21.22l41.83-41.83c-10.87-4.85-21.65-9.93-32.33-15.23l-48.28 48.28c-5.824 5.825-15.339 5.882-21.22 0-5.85-5.86-5.85-15.36 0-21.22l41.53-41.53c-10.25-5.52-20.38-11.24-30.4-17.16l-49.91 49.91c-5.824 5.825-15.339 5.882-21.22 0-5.85-5.86-5.85-15.36 0-21.22l44.84-44.83c-10.47-6.654-17.007-11.136-25.91-17.04-2.46-1.64-5.36-2.52-8.32-2.52h-62c-8.28 0-15 6.72-15 15v30c0 8.27-6.73 15-15 15h-60c-8.27 0-15-6.73-15-15 0-24.81-20.19-45-45-45h-30c-8.28 0-15 6.72-15 15v105h45c36.23 0 66.53 25.81 73.49 60h393.51v-4.38c0-30.84-18.51-58.18-47.15-69.63z"/></g></g></g></svg>